<?xml version="1.0" standalone="no"?>
<!DOCTYPE svg PUBLIC "-//W3C//DTD SVG 20010904//EN"
 "http://www.w3.org/TR/2001/REC-SVG-20010904/DTD/svg10.dtd">
<svg version="1.0" xmlns="http://www.w3.org/2000/svg"
 width="1024.000000pt" height="1024.000000pt" viewBox="0 0 1024.000000 1024.000000"
 preserveAspectRatio="xMidYMid meet">

<rect width="100%" height="100%" fill="white" />

<g transform="translate(0.000000,1024.000000) scale(0.100000,-0.100000)"
fill="#000000" stroke="none">
<path d="M0 5120 l0 -5120 5120 0 5120 0 0 5120 0 5120 -5120 0 -5120 0 0
-5120z m5229 3711 c62 -57 73 -111 69 -339 -3 -213 -12 -245 -79 -289 -80 -53
-186 -35 -245 43 l-29 37 -3 225 c-4 254 3 292 62 337 70 53 158 48 225 -14z
m-1363 -541 c38 -15 302 -277 326 -324 41 -79 6 -191 -72 -231 -37 -19 -108
-19 -151 -1 -19 8 -98 79 -177 158 -120 121 -145 152 -157 191 -24 79 13 163
90 205 25 14 105 15 141 2z m2659 -13 c58 -33 85 -78 85 -144 0 -30 -6 -66
-14 -81 -8 -15 -79 -90 -158 -168 -154 -151 -184 -170 -263 -162 -111 13 -175
148 -119 252 28 51 266 294 305 311 51 21 117 18 164 -8z m-1139 -376 c466
-115 800 -491 854 -961 14 -120 12 -192 -6 -301 -55 -323 -250 -605 -538 -777
-89 -54 -193 -96 -313 -129 -88 -24 -115 -26 -263 -26 -151 1 -175 3 -285 32
-439 114 -752 451 -836 900 -22 119 -23 181 -9 300 22 170 70 307 162 460 65
106 232 279 336 345 121 77 284 146 382 162 19 4 55 10 80 15 78 14 345 2 436
-20z m-1735 -928 c42 -22 59 -38 77 -73 48 -93 7 -205 -89 -242 -35 -14 -80
-17 -224 -17 -99 -1 -197 4 -217 9 -87 25 -143 120 -120 207 17 62 39 89 96
118 48 24 57 25 236 25 184 0 187 0 241 -27z m3384 16 c88 -25 147 -125 124
-211 -14 -53 -72 -112 -124 -127 -53 -15 -382 -14 -426 0 -128 43 -169 187
-81 281 56 59 90 67 292 68 98 0 192 -5 215 -11z m-2930 -1078 c64 -29 105
-86 105 -144 0 -71 -20 -100 -173 -255 -163 -164 -189 -180 -267 -167 -51 9
-116 66 -130 113 -14 52 -12 108 4 140 13 24 286 302 297 302 2 0 22 7 44 15
53 19 72 18 120 -4z m2171 -6 c49 -20 292 -259 315 -310 64 -139 -56 -285
-201 -245 -37 10 -68 36 -188 153 -80 78 -151 156 -158 174 -27 63 -14 144 29
192 46 50 133 65 203 36z m-1081 -458 c21 -12 53 -42 70 -65 l30 -44 0 -181
c0 -210 -8 -240 -83 -292 -37 -25 -53 -30 -102 -30 -50 0 -64 4 -97 31 -67 54
-73 75 -73 280 0 173 1 182 25 231 44 87 145 118 230 70z m-259 -896 c5 -6 8
-200 6 -500 l-2 -491 -1055 0 c-673 0 -1056 4 -1060 10 -5 8 64 204 212 600
13 36 33 92 45 125 45 131 100 203 183 241 l50 24 806 0 c495 0 809 -4 815 -9z
m2036 -29 c98 -48 137 -98 197 -251 27 -69 99 -253 160 -409 62 -155 109 -287
106 -292 -4 -6 -389 -10 -1076 -10 l-1069 0 0 500 0 500 808 -2 807 -3 67 -33z
m-2032 -1957 l0 -645 -22 -5 c-33 -8 -2188 -1 -2219 8 -62 17 -123 51 -177
102 -100 93 -146 220 -124 350 8 50 151 459 283 813 l9 22 1125 0 1125 0 0
-645z m2640 535 c21 -58 80 -217 130 -355 135 -366 132 -357 127 -451 -6 -102
-34 -167 -106 -246 -65 -71 -150 -115 -247 -129 -41 -5 -498 -8 -1129 -7
l-1060 3 -3 635 c-1 349 0 641 3 648 3 10 234 12 1126 10 l1121 -3 38 -105z"/>
</g>
</svg>
